<mxfile host="app.diagrams.net" modified="2023-10-30T09:31:43.140Z" agent="Mozilla/5.0 (Windows NT 10.0; Win64; x64) AppleWebKit/537.36 (KHTML, like Gecko) Chrome/118.0.0.0 Safari/537.36" version="22.0.8" etag="2PEE8XpIi42yCnU_cN2d" type="github">
  <diagram name="Page-1" id="Q3NlQNn6599Edl9ukwjO">
    <mxGraphModel>
      <root>
        <mxCell id="0" />
        <mxCell id="1" parent="0" />
      </root>
    </mxGraphModel>
  </diagram>
</mxfile>
